<svg xmlns="http://www.w3.org/2000/svg" xmlns:xlink="http://www.w3.org/1999/xlink" width="2000" zoomAndPan="magnify" viewBox="0 0 1500 1499.999933" height="2000" preserveAspectRatio="xMidYMid meet" version="1.0"><defs><g/><clipPath id="470a5b501f"><path d="M 500 818 L 548 818 L 548 889.9375 L 500 889.9375 Z M 500 818 " clip-rule="nonzero"/></clipPath><clipPath id="3307fc7a59"><rect x="0" width="913" y="0" height="233"/></clipPath><clipPath id="319bff9093"><rect x="0" width="784" y="0" height="79"/></clipPath></defs><path fill="#004aad" d="M 611.878906 479.082031 C 624.773438 464.203125 635.882812 447.171875 650.867188 434.816406 C 735.535156 364.976562 857.480469 392.378906 906.054688 490.8125 C 909.625 498.058594 916.144531 505.597656 923.222656 509.089844 C 997.464844 545.75 1034.179688 616.542969 1018.574219 694.78125 C 1003.984375 767.875 941.101562 820.90625 861.355469 824.992188 C 829.878906 826.605469 797.929688 826.40625 766.652344 822.875 C 674.605469 812.480469 613.824219 737.257812 620.488281 644.75 C 621.996094 623.867188 635.988281 609.242188 653.367188 610.363281 C 670.71875 611.488281 682.726562 625.003906 680.253906 646.917969 C 673.429688 707.332031 719.476562 769.050781 799.117188 765.269531 C 824.351562 764.066406 849.941406 765.8125 874.777344 762.148438 C 924.332031 754.832031 960.117188 713.054688 962.074219 664.109375 C 963.980469 616.25 930.242188 571.046875 881.789062 560.042969 C 865.691406 556.394531 860.246094 549.042969 856.449219 533.820312 C 840.339844 469.269531 767.113281 436.882812 708.964844 468.910156 C 693.148438 477.613281 678.152344 481.371094 660.601562 480.640625 C 645.671875 480.019531 630.648438 481.9375 615.664062 482.71875 C 614.394531 481.5 613.136719 480.285156 611.878906 479.082031 Z M 611.878906 479.082031 " fill-opacity="1" fill-rule="nonzero"/><path fill="#fbc927" d="M 693.175781 819.082031 C 591.910156 846.972656 489.21875 761.75 493.664062 655.582031 C 497.3125 568.242188 563.730469 499.910156 648.816406 495.957031 C 734.066406 492.003906 807.753906 552.863281 820.160156 638.679688 C 822.394531 654.101562 821.667969 670.40625 819.433594 685.890625 C 816.5625 705.769531 803.035156 714.789062 784.558594 712.355469 C 768.449219 710.238281 759.21875 699.355469 760.6875 679.585938 C 763.53125 641.351562 755.054688 607.480469 724.964844 582.105469 C 691.390625 553.789062 653.15625 547.851562 613.335938 566.644531 C 575.195312 584.65625 554.285156 616.316406 553.929688 658.703125 C 553.558594 702.449219 574.519531 734.085938 613.492188 754.820312 C 627.417969 762.226562 639.335938 773.546875 651.726562 783.636719 C 665.347656 794.734375 678.46875 806.464844 693.175781 819.082031 Z M 693.175781 819.082031 " fill-opacity="1" fill-rule="nonzero"/><path fill="#fbc927" d="M 423.835938 651.085938 C 415.054688 651.085938 406.089844 652.15625 397.585938 650.636719 C 393.300781 649.867188 389.835938 644.40625 386.011719 641.074219 C 389.1875 637.648438 392.226562 631.40625 395.5625 631.246094 C 414.882812 630.296875 434.296875 630.1875 453.605469 631.300781 C 456.976562 631.5 459.953125 638.796875 463.101562 642.820312 C 459.410156 645.582031 455.972656 650.210938 451.992188 650.714844 C 442.746094 651.890625 433.238281 651.085938 423.835938 651.085938 Z M 423.835938 651.085938 " fill-opacity="1" fill-rule="nonzero"/><g clip-path="url(#470a5b501f)"><path fill="#fbc927" d="M 506.625 890.296875 C 504.164062 884.132812 498.875 877.296875 500.539062 873.976562 C 509.597656 855.976562 520.085938 838.652344 530.929688 821.632812 C 532.476562 819.210938 539.554688 817.984375 542.449219 819.425781 C 545.242188 820.824219 548.363281 827.648438 547.183594 829.964844 C 537.6875 848.425781 527.308594 866.4375 516.886719 884.398438 C 515.816406 886.25 512.707031 886.898438 506.625 890.296875 Z M 506.625 890.296875 " fill-opacity="1" fill-rule="nonzero"/></g><path fill="#fbc927" d="M 583.40625 471.34375 C 580.578125 476.09375 579.359375 480.867188 576.808594 481.726562 C 573.355469 482.890625 566.636719 482.507812 565.222656 480.285156 C 554.140625 462.90625 543.679688 445.121094 533.90625 426.976562 C 532.519531 424.382812 534.726562 417.769531 537.371094 415.707031 C 539.777344 413.828125 547.355469 414.082031 548.679688 416.050781 C 560.753906 434.128906 571.941406 452.804688 583.40625 471.34375 Z M 583.40625 471.34375 " fill-opacity="1" fill-rule="nonzero"/><path fill="#fbc927" d="M 480.558594 741.171875 C 480.410156 755.839844 424.484375 788.742188 417.144531 782.183594 C 414.273438 779.628906 414.394531 767.78125 417.105469 765.917969 C 432.644531 755.242188 449.054688 745.667969 465.945312 737.269531 C 469.632812 735.445312 476.484375 739.96875 480.558594 741.171875 Z M 480.558594 741.171875 " fill-opacity="1" fill-rule="nonzero"/><path fill="#fbc927" d="M 502.601562 545.773438 C 495.699219 547.519531 488.785156 551.738281 484.910156 549.808594 C 468.058594 541.4375 451.847656 531.664062 436.070312 521.375 C 433.265625 519.550781 432.023438 512.394531 433.105469 508.558594 C 433.78125 506.179688 441.453125 503.046875 443.820312 504.300781 C 462.042969 514.023438 479.777344 524.628906 497.484375 535.289062 C 499.230469 536.359375 499.667969 539.585938 502.601562 545.773438 Z M 502.601562 545.773438 " fill-opacity="1" fill-rule="nonzero"/><g transform="matrix(1, 0, 0, 1, 325, 847)"><g clip-path="url(#3307fc7a59)"><g fill="#2dabe3" fill-opacity="0.4"><g transform="translate(1.385386, 183.948016)"><g><path d="M 79.671875 2.265625 C 65.953125 2.265625 53.582031 -0.691406 42.5625 -6.609375 C 31.550781 -12.523438 22.929688 -20.671875 16.703125 -31.046875 C 10.472656 -41.429688 7.359375 -53.109375 7.359375 -66.078125 C 7.359375 -79.046875 10.472656 -90.71875 16.703125 -101.09375 C 22.929688 -111.476562 31.550781 -119.628906 42.5625 -125.546875 C 53.582031 -131.460938 65.953125 -134.421875 79.671875 -134.421875 C 93.390625 -134.421875 105.722656 -131.460938 116.671875 -125.546875 C 127.628906 -119.628906 136.253906 -111.476562 142.546875 -101.09375 C 148.835938 -90.71875 151.984375 -79.046875 151.984375 -66.078125 C 151.984375 -53.109375 148.835938 -41.429688 142.546875 -31.046875 C 136.253906 -20.671875 127.628906 -12.523438 116.671875 -6.609375 C 105.722656 -0.691406 93.390625 2.265625 79.671875 2.265625 Z M 79.671875 -23.78125 C 87.472656 -23.78125 94.519531 -25.570312 100.8125 -29.15625 C 107.101562 -32.75 112.039062 -37.753906 115.625 -44.171875 C 119.21875 -50.597656 121.015625 -57.898438 121.015625 -66.078125 C 121.015625 -74.253906 119.21875 -81.550781 115.625 -87.96875 C 112.039062 -94.394531 107.101562 -99.398438 100.8125 -102.984375 C 94.519531 -106.578125 87.472656 -108.375 79.671875 -108.375 C 71.867188 -108.375 64.820312 -106.578125 58.53125 -102.984375 C 52.238281 -99.398438 47.296875 -94.394531 43.703125 -87.96875 C 40.117188 -81.550781 38.328125 -74.253906 38.328125 -66.078125 C 38.328125 -57.898438 40.117188 -50.597656 43.703125 -44.171875 C 47.296875 -37.753906 52.238281 -32.75 58.53125 -29.15625 C 64.820312 -25.570312 71.867188 -23.78125 79.671875 -23.78125 Z M 79.671875 -23.78125 "/></g></g></g><g fill="#2dabe3" fill-opacity="0.4"><g transform="translate(160.703288, 183.948016)"><g><path d="M 99.875 0 L 74.390625 -36.8125 L 46.25 -36.8125 L 46.25 0 L 15.671875 0 L 15.671875 -132.15625 L 72.875 -132.15625 C 84.582031 -132.15625 94.742188 -130.203125 103.359375 -126.296875 C 111.984375 -122.398438 118.625 -116.863281 123.28125 -109.6875 C 127.9375 -102.507812 130.265625 -94.015625 130.265625 -84.203125 C 130.265625 -74.390625 127.90625 -65.925781 123.1875 -58.8125 C 118.46875 -51.695312 111.765625 -46.253906 103.078125 -42.484375 L 132.71875 0 Z M 99.3125 -84.203125 C 99.3125 -91.628906 96.914062 -97.320312 92.125 -101.28125 C 87.34375 -105.25 80.359375 -107.234375 71.171875 -107.234375 L 46.25 -107.234375 L 46.25 -61.171875 L 71.171875 -61.171875 C 80.359375 -61.171875 87.34375 -63.179688 92.125 -67.203125 C 96.914062 -71.234375 99.3125 -76.898438 99.3125 -84.203125 Z M 99.3125 -84.203125 "/></g></g></g><g fill="#2dabe3" fill-opacity="0.4"><g transform="translate(299.44577, 183.948016)"><g><path d="M 135.9375 0 L 135.75 -79.296875 L 96.859375 -13.96875 L 83.078125 -13.96875 L 44.375 -77.59375 L 44.375 0 L 15.671875 0 L 15.671875 -132.15625 L 40.96875 -132.15625 L 90.4375 -50.03125 L 139.140625 -132.15625 L 164.25 -132.15625 L 164.625 0 Z M 135.9375 0 "/></g></g></g><g fill="#2dabe3" fill-opacity="0.4"><g transform="translate(479.716613, 183.948016)"><g><path d="M 142.734375 -132.15625 L 85.53125 0 L 55.3125 0 L -1.703125 -132.15625 L 31.34375 -132.15625 L 71.546875 -37.765625 L 112.328125 -132.15625 Z M 142.734375 -132.15625 "/></g></g></g><g fill="#2dabe3" fill-opacity="0.4"><g transform="translate(620.535509, 183.948016)"><g><path d="M 102.703125 -28.3125 L 41.34375 -28.3125 L 29.640625 0 L -1.703125 0 L 57.203125 -132.15625 L 87.40625 -132.15625 L 146.5 0 L 114.40625 0 Z M 93.078125 -51.546875 L 72.125 -102.140625 L 51.15625 -51.546875 Z M 93.078125 -51.546875 "/></g></g></g><g fill="#2dabe3" fill-opacity="0.4"><g transform="translate(765.129718, 183.948016)"><g><path d="M 104.96875 -68.15625 L 132.90625 -68.15625 L 132.90625 -14.53125 C 125.738281 -9.125 117.429688 -4.972656 107.984375 -2.078125 C 98.546875 0.816406 89.046875 2.265625 79.484375 2.265625 C 65.765625 2.265625 53.425781 -0.660156 42.46875 -6.515625 C 31.519531 -12.367188 22.929688 -20.484375 16.703125 -30.859375 C 10.472656 -41.242188 7.359375 -52.984375 7.359375 -66.078125 C 7.359375 -79.171875 10.472656 -90.90625 16.703125 -101.28125 C 22.929688 -111.664062 31.582031 -119.785156 42.65625 -125.640625 C 53.738281 -131.492188 66.203125 -134.421875 80.046875 -134.421875 C 91.628906 -134.421875 102.140625 -132.46875 111.578125 -128.5625 C 121.015625 -124.664062 128.945312 -119.003906 135.375 -111.578125 L 115.734375 -93.453125 C 106.296875 -103.398438 94.90625 -108.375 81.5625 -108.375 C 73.125 -108.375 65.632812 -106.609375 59.09375 -103.078125 C 52.550781 -99.554688 47.453125 -94.585938 43.796875 -88.171875 C 40.148438 -81.753906 38.328125 -74.390625 38.328125 -66.078125 C 38.328125 -57.898438 40.148438 -50.597656 43.796875 -44.171875 C 47.453125 -37.753906 52.519531 -32.75 59 -29.15625 C 65.476562 -25.570312 72.875 -23.78125 81.1875 -23.78125 C 89.988281 -23.78125 97.914062 -25.671875 104.96875 -29.453125 Z M 104.96875 -68.15625 "/></g></g></g><g fill="#004aad" fill-opacity="1"><g transform="translate(1.385386, 183.948016)"><g><path d="M 79.671875 2.265625 C 65.953125 2.265625 53.582031 -0.691406 42.5625 -6.609375 C 31.550781 -12.523438 22.929688 -20.671875 16.703125 -31.046875 C 10.472656 -41.429688 7.359375 -53.109375 7.359375 -66.078125 C 7.359375 -79.046875 10.472656 -90.71875 16.703125 -101.09375 C 22.929688 -111.476562 31.550781 -119.628906 42.5625 -125.546875 C 53.582031 -131.460938 65.953125 -134.421875 79.671875 -134.421875 C 93.390625 -134.421875 105.722656 -131.460938 116.671875 -125.546875 C 127.628906 -119.628906 136.253906 -111.476562 142.546875 -101.09375 C 148.835938 -90.71875 151.984375 -79.046875 151.984375 -66.078125 C 151.984375 -53.109375 148.835938 -41.429688 142.546875 -31.046875 C 136.253906 -20.671875 127.628906 -12.523438 116.671875 -6.609375 C 105.722656 -0.691406 93.390625 2.265625 79.671875 2.265625 Z M 79.671875 -23.78125 C 87.472656 -23.78125 94.519531 -25.570312 100.8125 -29.15625 C 107.101562 -32.75 112.039062 -37.753906 115.625 -44.171875 C 119.21875 -50.597656 121.015625 -57.898438 121.015625 -66.078125 C 121.015625 -74.253906 119.21875 -81.550781 115.625 -87.96875 C 112.039062 -94.394531 107.101562 -99.398438 100.8125 -102.984375 C 94.519531 -106.578125 87.472656 -108.375 79.671875 -108.375 C 71.867188 -108.375 64.820312 -106.578125 58.53125 -102.984375 C 52.238281 -99.398438 47.296875 -94.394531 43.703125 -87.96875 C 40.117188 -81.550781 38.328125 -74.253906 38.328125 -66.078125 C 38.328125 -57.898438 40.117188 -50.597656 43.703125 -44.171875 C 47.296875 -37.753906 52.238281 -32.75 58.53125 -29.15625 C 64.820312 -25.570312 71.867188 -23.78125 79.671875 -23.78125 Z M 79.671875 -23.78125 "/></g></g></g><g fill="#004aad" fill-opacity="1"><g transform="translate(160.703288, 183.948016)"><g><path d="M 99.875 0 L 74.390625 -36.8125 L 46.25 -36.8125 L 46.25 0 L 15.671875 0 L 15.671875 -132.15625 L 72.875 -132.15625 C 84.582031 -132.15625 94.742188 -130.203125 103.359375 -126.296875 C 111.984375 -122.398438 118.625 -116.863281 123.28125 -109.6875 C 127.9375 -102.507812 130.265625 -94.015625 130.265625 -84.203125 C 130.265625 -74.390625 127.90625 -65.925781 123.1875 -58.8125 C 118.46875 -51.695312 111.765625 -46.253906 103.078125 -42.484375 L 132.71875 0 Z M 99.3125 -84.203125 C 99.3125 -91.628906 96.914062 -97.320312 92.125 -101.28125 C 87.34375 -105.25 80.359375 -107.234375 71.171875 -107.234375 L 46.25 -107.234375 L 46.25 -61.171875 L 71.171875 -61.171875 C 80.359375 -61.171875 87.34375 -63.179688 92.125 -67.203125 C 96.914062 -71.234375 99.3125 -76.898438 99.3125 -84.203125 Z M 99.3125 -84.203125 "/></g></g></g><g fill="#004aad" fill-opacity="1"><g transform="translate(299.44577, 183.948016)"><g><path d="M 135.9375 0 L 135.75 -79.296875 L 96.859375 -13.96875 L 83.078125 -13.96875 L 44.375 -77.59375 L 44.375 0 L 15.671875 0 L 15.671875 -132.15625 L 40.96875 -132.15625 L 90.4375 -50.03125 L 139.140625 -132.15625 L 164.25 -132.15625 L 164.625 0 Z M 135.9375 0 "/></g></g></g><g fill="#004aad" fill-opacity="1"><g transform="translate(479.716613, 183.948016)"><g><path d="M 142.734375 -132.15625 L 85.53125 0 L 55.3125 0 L -1.703125 -132.15625 L 31.34375 -132.15625 L 71.546875 -37.765625 L 112.328125 -132.15625 Z M 142.734375 -132.15625 "/></g></g></g><g fill="#004aad" fill-opacity="1"><g transform="translate(620.535509, 183.948016)"><g><path d="M 102.703125 -28.3125 L 41.34375 -28.3125 L 29.640625 0 L -1.703125 0 L 57.203125 -132.15625 L 87.40625 -132.15625 L 146.5 0 L 114.40625 0 Z M 93.078125 -51.546875 L 72.125 -102.140625 L 51.15625 -51.546875 Z M 93.078125 -51.546875 "/></g></g></g><g fill="#004aad" fill-opacity="1"><g transform="translate(765.129718, 183.948016)"><g><path d="M 104.96875 -68.15625 L 132.90625 -68.15625 L 132.90625 -14.53125 C 125.738281 -9.125 117.429688 -4.972656 107.984375 -2.078125 C 98.546875 0.816406 89.046875 2.265625 79.484375 2.265625 C 65.765625 2.265625 53.425781 -0.660156 42.46875 -6.515625 C 31.519531 -12.367188 22.929688 -20.484375 16.703125 -30.859375 C 10.472656 -41.242188 7.359375 -52.984375 7.359375 -66.078125 C 7.359375 -79.171875 10.472656 -90.90625 16.703125 -101.28125 C 22.929688 -111.664062 31.582031 -119.785156 42.65625 -125.640625 C 53.738281 -131.492188 66.203125 -134.421875 80.046875 -134.421875 C 91.628906 -134.421875 102.140625 -132.46875 111.578125 -128.5625 C 121.015625 -124.664062 128.945312 -119.003906 135.375 -111.578125 L 115.734375 -93.453125 C 106.296875 -103.398438 94.90625 -108.375 81.5625 -108.375 C 73.125 -108.375 65.632812 -106.609375 59.09375 -103.078125 C 52.550781 -99.554688 47.453125 -94.585938 43.796875 -88.171875 C 40.148438 -81.753906 38.328125 -74.390625 38.328125 -66.078125 C 38.328125 -57.898438 40.148438 -50.597656 43.796875 -44.171875 C 47.453125 -37.753906 52.519531 -32.75 59 -29.15625 C 65.476562 -25.570312 72.875 -23.78125 81.1875 -23.78125 C 89.988281 -23.78125 97.914062 -25.671875 104.96875 -29.453125 Z M 104.96875 -68.15625 "/></g></g></g></g></g><g transform="matrix(1, 0, 0, 1, 416, 1056)"><g clip-path="url(#319bff9093)"><g fill="#2dabe3" fill-opacity="0.4"><g transform="translate(1.320066, 60.854649)"><g><path d="M 3.9375 -19.828125 L 21.140625 -19.828125 L 21.140625 -15.765625 L 3.9375 -15.765625 Z M 3.9375 -19.828125 "/></g></g></g><g fill="#2dabe3" fill-opacity="0.4"><g transform="translate(34.335673, 60.854649)"><g><path d="M 55.234375 -45.96875 L 55.234375 0 L 50.5625 0 L 50.5625 -36.78125 L 32.5 -5.84375 L 30.203125 -5.84375 L 12.15625 -36.578125 L 12.15625 0 L 7.484375 0 L 7.484375 -45.96875 L 11.5 -45.96875 L 31.453125 -11.890625 L 51.21875 -45.96875 Z M 55.234375 -45.96875 "/></g></g></g><g fill="#2dabe3" fill-opacity="0.4"><g transform="translate(104.954227, 60.854649)"><g><path d="M 40 -4.203125 L 40 0 L 7.484375 0 L 7.484375 -45.96875 L 39.015625 -45.96875 L 39.015625 -41.765625 L 12.34375 -41.765625 L 12.34375 -25.421875 L 36.125 -25.421875 L 36.125 -21.28125 L 12.34375 -21.28125 L 12.34375 -4.203125 Z M 28.046875 -57.859375 L 34.28125 -57.859375 L 23.640625 -49.71875 L 19.046875 -49.71875 Z M 28.046875 -57.859375 "/></g></g></g><g fill="#2dabe3" fill-opacity="0.4"><g transform="translate(156.804107, 60.854649)"><g><path d="M 16.421875 -41.765625 L 0.265625 -41.765625 L 0.265625 -45.96875 L 37.4375 -45.96875 L 37.4375 -41.765625 L 21.28125 -41.765625 L 21.28125 0 L 16.421875 0 Z M 16.421875 -41.765625 "/></g></g></g><g fill="#2dabe3" fill-opacity="0.4"><g transform="translate(202.419658, 60.854649)"><g><path d="M 40 -4.203125 L 40 0 L 7.484375 0 L 7.484375 -45.96875 L 39.015625 -45.96875 L 39.015625 -41.765625 L 12.34375 -41.765625 L 12.34375 -25.421875 L 36.125 -25.421875 L 36.125 -21.28125 L 12.34375 -21.28125 L 12.34375 -4.203125 Z M 28.046875 -57.859375 L 34.28125 -57.859375 L 23.640625 -49.71875 L 19.046875 -49.71875 Z M 28.046875 -57.859375 "/></g></g></g><g fill="#2dabe3" fill-opacity="0.4"><g transform="translate(254.269538, 60.854649)"><g><path d="M 27.578125 0.390625 C 23.023438 0.390625 18.898438 -0.625 15.203125 -2.65625 C 11.503906 -4.695312 8.613281 -7.488281 6.53125 -11.03125 C 4.457031 -14.582031 3.421875 -18.566406 3.421875 -22.984375 C 3.421875 -27.410156 4.457031 -31.394531 6.53125 -34.9375 C 8.613281 -38.476562 11.503906 -41.265625 15.203125 -43.296875 C 18.898438 -45.335938 23.023438 -46.359375 27.578125 -46.359375 C 32.128906 -46.359375 36.234375 -45.351562 39.890625 -43.34375 C 43.546875 -41.332031 46.425781 -38.539062 48.53125 -34.96875 C 50.632812 -31.40625 51.6875 -27.410156 51.6875 -22.984375 C 51.6875 -18.566406 50.632812 -14.570312 48.53125 -11 C 46.425781 -7.425781 43.546875 -4.632812 39.890625 -2.625 C 36.234375 -0.613281 32.128906 0.390625 27.578125 0.390625 Z M 27.578125 -3.9375 C 31.210938 -3.9375 34.492188 -4.753906 37.421875 -6.390625 C 40.359375 -8.035156 42.660156 -10.3125 44.328125 -13.21875 C 45.992188 -16.132812 46.828125 -19.390625 46.828125 -22.984375 C 46.828125 -26.578125 45.992188 -29.828125 44.328125 -32.734375 C 42.660156 -35.648438 40.359375 -37.925781 37.421875 -39.5625 C 34.492188 -41.207031 31.210938 -42.03125 27.578125 -42.03125 C 23.941406 -42.03125 20.644531 -41.207031 17.6875 -39.5625 C 14.738281 -37.925781 12.421875 -35.648438 10.734375 -32.734375 C 9.046875 -29.828125 8.203125 -26.578125 8.203125 -22.984375 C 8.203125 -19.390625 9.046875 -16.132812 10.734375 -13.21875 C 12.421875 -10.3125 14.738281 -8.035156 17.6875 -6.390625 C 20.644531 -4.753906 23.941406 -3.9375 27.578125 -3.9375 Z M 27.578125 -3.9375 "/></g></g></g><g fill="#2dabe3" fill-opacity="0.4"><g transform="translate(317.27562, 60.854649)"><g/></g></g><g fill="#2dabe3" fill-opacity="0.4"><g transform="translate(342.416273, 60.854649)"><g><path d="M 55.234375 -45.96875 L 55.234375 0 L 50.5625 0 L 50.5625 -36.78125 L 32.5 -5.84375 L 30.203125 -5.84375 L 12.15625 -36.578125 L 12.15625 0 L 7.484375 0 L 7.484375 -45.96875 L 11.5 -45.96875 L 31.453125 -11.890625 L 51.21875 -45.96875 Z M 55.234375 -45.96875 "/></g></g></g><g fill="#2dabe3" fill-opacity="0.4"><g transform="translate(413.034827, 60.854649)"><g><path d="M 36.3125 -12.28125 L 10.703125 -12.28125 L 5.1875 0 L 0.125 0 L 21.140625 -45.96875 L 25.9375 -45.96875 L 46.953125 0 L 41.828125 0 Z M 34.546875 -16.21875 L 23.515625 -40.90625 L 12.484375 -16.21875 Z M 34.546875 -16.21875 "/></g></g></g><g fill="#2dabe3" fill-opacity="0.4"><g transform="translate(468.034716, 60.854649)"><g><path d="M 45.90625 -45.96875 L 45.90625 0 L 41.90625 0 L 12.34375 -37.296875 L 12.34375 0 L 7.484375 0 L 7.484375 -45.96875 L 11.5 -45.96875 L 41.109375 -8.671875 L 41.109375 -45.96875 Z M 45.90625 -45.96875 "/></g></g></g><g fill="#2dabe3" fill-opacity="0.4"><g transform="translate(529.334578, 60.854649)"><g><path d="M 36.3125 -12.28125 L 10.703125 -12.28125 L 5.1875 0 L 0.125 0 L 21.140625 -45.96875 L 25.9375 -45.96875 L 46.953125 0 L 41.828125 0 Z M 34.546875 -16.21875 L 23.515625 -40.90625 L 12.484375 -16.21875 Z M 34.546875 -16.21875 "/></g></g></g><g fill="#2dabe3" fill-opacity="0.4"><g transform="translate(584.334467, 60.854649)"><g><path d="M 39.859375 -22.984375 L 44.53125 -22.984375 L 44.53125 -5.453125 C 42.382812 -3.566406 39.84375 -2.117188 36.90625 -1.109375 C 33.96875 -0.109375 30.878906 0.390625 27.640625 0.390625 C 23.046875 0.390625 18.910156 -0.613281 15.234375 -2.625 C 11.554688 -4.632812 8.664062 -7.425781 6.5625 -11 C 4.46875 -14.570312 3.421875 -18.566406 3.421875 -22.984375 C 3.421875 -27.410156 4.46875 -31.40625 6.5625 -34.96875 C 8.664062 -38.539062 11.554688 -41.332031 15.234375 -43.34375 C 18.910156 -45.351562 23.070312 -46.359375 27.71875 -46.359375 C 31.21875 -46.359375 34.429688 -45.800781 37.359375 -44.6875 C 40.296875 -43.570312 42.769531 -41.921875 44.78125 -39.734375 L 41.765625 -36.640625 C 38.128906 -40.234375 33.507812 -42.03125 27.90625 -42.03125 C 24.1875 -42.03125 20.828125 -41.207031 17.828125 -39.5625 C 14.828125 -37.925781 12.472656 -35.648438 10.765625 -32.734375 C 9.054688 -29.828125 8.203125 -26.578125 8.203125 -22.984375 C 8.203125 -19.390625 9.054688 -16.148438 10.765625 -13.265625 C 12.472656 -10.378906 14.816406 -8.101562 17.796875 -6.4375 C 20.773438 -4.769531 24.125 -3.9375 27.84375 -3.9375 C 32.570312 -3.9375 36.578125 -5.117188 39.859375 -7.484375 Z M 39.859375 -22.984375 "/></g></g></g><g fill="#2dabe3" fill-opacity="0.4"><g transform="translate(643.009329, 60.854649)"><g><path d="M 40 -4.203125 L 40 0 L 7.484375 0 L 7.484375 -45.96875 L 39.015625 -45.96875 L 39.015625 -41.765625 L 12.34375 -41.765625 L 12.34375 -25.421875 L 36.125 -25.421875 L 36.125 -21.28125 L 12.34375 -21.28125 L 12.34375 -4.203125 Z M 40 -4.203125 "/></g></g></g><g fill="#2dabe3" fill-opacity="0.4"><g transform="translate(694.85921, 60.854649)"><g><path d="M 38.875 0 L 28.375 -14.78125 C 27.1875 -14.644531 25.957031 -14.578125 24.6875 -14.578125 L 12.34375 -14.578125 L 12.34375 0 L 7.484375 0 L 7.484375 -45.96875 L 24.6875 -45.96875 C 30.5625 -45.96875 35.160156 -44.566406 38.484375 -41.765625 C 41.804688 -38.960938 43.46875 -35.109375 43.46875 -30.203125 C 43.46875 -26.617188 42.5625 -23.585938 40.75 -21.109375 C 38.9375 -18.640625 36.34375 -16.859375 32.96875 -15.765625 L 44.203125 0 Z M 24.5625 -18.71875 C 29.113281 -18.71875 32.59375 -19.722656 35 -21.734375 C 37.40625 -23.753906 38.609375 -26.578125 38.609375 -30.203125 C 38.609375 -33.929688 37.40625 -36.789062 35 -38.78125 C 32.59375 -40.769531 29.113281 -41.765625 24.5625 -41.765625 L 12.34375 -41.765625 L 12.34375 -18.71875 Z M 24.5625 -18.71875 "/></g></g></g><g fill="#2dabe3" fill-opacity="0.4"><g transform="translate(750.252822, 60.854649)"><g><path d="M 3.9375 -19.828125 L 21.140625 -19.828125 L 21.140625 -15.765625 L 3.9375 -15.765625 Z M 3.9375 -19.828125 "/></g></g></g><g fill="#004aad" fill-opacity="1"><g transform="translate(1.320066, 60.854649)"><g><path d="M 3.9375 -19.828125 L 21.140625 -19.828125 L 21.140625 -15.765625 L 3.9375 -15.765625 Z M 3.9375 -19.828125 "/></g></g></g><g fill="#004aad" fill-opacity="1"><g transform="translate(34.335673, 60.854649)"><g><path d="M 55.234375 -45.96875 L 55.234375 0 L 50.5625 0 L 50.5625 -36.78125 L 32.5 -5.84375 L 30.203125 -5.84375 L 12.15625 -36.578125 L 12.15625 0 L 7.484375 0 L 7.484375 -45.96875 L 11.5 -45.96875 L 31.453125 -11.890625 L 51.21875 -45.96875 Z M 55.234375 -45.96875 "/></g></g></g><g fill="#004aad" fill-opacity="1"><g transform="translate(104.954227, 60.854649)"><g><path d="M 40 -4.203125 L 40 0 L 7.484375 0 L 7.484375 -45.96875 L 39.015625 -45.96875 L 39.015625 -41.765625 L 12.34375 -41.765625 L 12.34375 -25.421875 L 36.125 -25.421875 L 36.125 -21.28125 L 12.34375 -21.28125 L 12.34375 -4.203125 Z M 28.046875 -57.859375 L 34.28125 -57.859375 L 23.640625 -49.71875 L 19.046875 -49.71875 Z M 28.046875 -57.859375 "/></g></g></g><g fill="#004aad" fill-opacity="1"><g transform="translate(156.804107, 60.854649)"><g><path d="M 16.421875 -41.765625 L 0.265625 -41.765625 L 0.265625 -45.96875 L 37.4375 -45.96875 L 37.4375 -41.765625 L 21.28125 -41.765625 L 21.28125 0 L 16.421875 0 Z M 16.421875 -41.765625 "/></g></g></g><g fill="#004aad" fill-opacity="1"><g transform="translate(202.419658, 60.854649)"><g><path d="M 40 -4.203125 L 40 0 L 7.484375 0 L 7.484375 -45.96875 L 39.015625 -45.96875 L 39.015625 -41.765625 L 12.34375 -41.765625 L 12.34375 -25.421875 L 36.125 -25.421875 L 36.125 -21.28125 L 12.34375 -21.28125 L 12.34375 -4.203125 Z M 28.046875 -57.859375 L 34.28125 -57.859375 L 23.640625 -49.71875 L 19.046875 -49.71875 Z M 28.046875 -57.859375 "/></g></g></g><g fill="#004aad" fill-opacity="1"><g transform="translate(254.269538, 60.854649)"><g><path d="M 27.578125 0.390625 C 23.023438 0.390625 18.898438 -0.625 15.203125 -2.65625 C 11.503906 -4.695312 8.613281 -7.488281 6.53125 -11.03125 C 4.457031 -14.582031 3.421875 -18.566406 3.421875 -22.984375 C 3.421875 -27.410156 4.457031 -31.394531 6.53125 -34.9375 C 8.613281 -38.476562 11.503906 -41.265625 15.203125 -43.296875 C 18.898438 -45.335938 23.023438 -46.359375 27.578125 -46.359375 C 32.128906 -46.359375 36.234375 -45.351562 39.890625 -43.34375 C 43.546875 -41.332031 46.425781 -38.539062 48.53125 -34.96875 C 50.632812 -31.40625 51.6875 -27.410156 51.6875 -22.984375 C 51.6875 -18.566406 50.632812 -14.570312 48.53125 -11 C 46.425781 -7.425781 43.546875 -4.632812 39.890625 -2.625 C 36.234375 -0.613281 32.128906 0.390625 27.578125 0.390625 Z M 27.578125 -3.9375 C 31.210938 -3.9375 34.492188 -4.753906 37.421875 -6.390625 C 40.359375 -8.035156 42.660156 -10.3125 44.328125 -13.21875 C 45.992188 -16.132812 46.828125 -19.390625 46.828125 -22.984375 C 46.828125 -26.578125 45.992188 -29.828125 44.328125 -32.734375 C 42.660156 -35.648438 40.359375 -37.925781 37.421875 -39.5625 C 34.492188 -41.207031 31.210938 -42.03125 27.578125 -42.03125 C 23.941406 -42.03125 20.644531 -41.207031 17.6875 -39.5625 C 14.738281 -37.925781 12.421875 -35.648438 10.734375 -32.734375 C 9.046875 -29.828125 8.203125 -26.578125 8.203125 -22.984375 C 8.203125 -19.390625 9.046875 -16.132812 10.734375 -13.21875 C 12.421875 -10.3125 14.738281 -8.035156 17.6875 -6.390625 C 20.644531 -4.753906 23.941406 -3.9375 27.578125 -3.9375 Z M 27.578125 -3.9375 "/></g></g></g><g fill="#004aad" fill-opacity="1"><g transform="translate(317.27562, 60.854649)"><g/></g></g><g fill="#004aad" fill-opacity="1"><g transform="translate(342.416273, 60.854649)"><g><path d="M 55.234375 -45.96875 L 55.234375 0 L 50.5625 0 L 50.5625 -36.78125 L 32.5 -5.84375 L 30.203125 -5.84375 L 12.15625 -36.578125 L 12.15625 0 L 7.484375 0 L 7.484375 -45.96875 L 11.5 -45.96875 L 31.453125 -11.890625 L 51.21875 -45.96875 Z M 55.234375 -45.96875 "/></g></g></g><g fill="#004aad" fill-opacity="1"><g transform="translate(413.034827, 60.854649)"><g><path d="M 36.3125 -12.28125 L 10.703125 -12.28125 L 5.1875 0 L 0.125 0 L 21.140625 -45.96875 L 25.9375 -45.96875 L 46.953125 0 L 41.828125 0 Z M 34.546875 -16.21875 L 23.515625 -40.90625 L 12.484375 -16.21875 Z M 34.546875 -16.21875 "/></g></g></g><g fill="#004aad" fill-opacity="1"><g transform="translate(468.034716, 60.854649)"><g><path d="M 45.90625 -45.96875 L 45.90625 0 L 41.90625 0 L 12.34375 -37.296875 L 12.34375 0 L 7.484375 0 L 7.484375 -45.96875 L 11.5 -45.96875 L 41.109375 -8.671875 L 41.109375 -45.96875 Z M 45.90625 -45.96875 "/></g></g></g><g fill="#004aad" fill-opacity="1"><g transform="translate(529.334578, 60.854649)"><g><path d="M 36.3125 -12.28125 L 10.703125 -12.28125 L 5.1875 0 L 0.125 0 L 21.140625 -45.96875 L 25.9375 -45.96875 L 46.953125 0 L 41.828125 0 Z M 34.546875 -16.21875 L 23.515625 -40.90625 L 12.484375 -16.21875 Z M 34.546875 -16.21875 "/></g></g></g><g fill="#004aad" fill-opacity="1"><g transform="translate(584.334467, 60.854649)"><g><path d="M 39.859375 -22.984375 L 44.53125 -22.984375 L 44.53125 -5.453125 C 42.382812 -3.566406 39.84375 -2.117188 36.90625 -1.109375 C 33.96875 -0.109375 30.878906 0.390625 27.640625 0.390625 C 23.046875 0.390625 18.910156 -0.613281 15.234375 -2.625 C 11.554688 -4.632812 8.664062 -7.425781 6.5625 -11 C 4.46875 -14.570312 3.421875 -18.566406 3.421875 -22.984375 C 3.421875 -27.410156 4.46875 -31.40625 6.5625 -34.96875 C 8.664062 -38.539062 11.554688 -41.332031 15.234375 -43.34375 C 18.910156 -45.351562 23.070312 -46.359375 27.71875 -46.359375 C 31.21875 -46.359375 34.429688 -45.800781 37.359375 -44.6875 C 40.296875 -43.570312 42.769531 -41.921875 44.78125 -39.734375 L 41.765625 -36.640625 C 38.128906 -40.234375 33.507812 -42.03125 27.90625 -42.03125 C 24.1875 -42.03125 20.828125 -41.207031 17.828125 -39.5625 C 14.828125 -37.925781 12.472656 -35.648438 10.765625 -32.734375 C 9.054688 -29.828125 8.203125 -26.578125 8.203125 -22.984375 C 8.203125 -19.390625 9.054688 -16.148438 10.765625 -13.265625 C 12.472656 -10.378906 14.816406 -8.101562 17.796875 -6.4375 C 20.773438 -4.769531 24.125 -3.9375 27.84375 -3.9375 C 32.570312 -3.9375 36.578125 -5.117188 39.859375 -7.484375 Z M 39.859375 -22.984375 "/></g></g></g><g fill="#004aad" fill-opacity="1"><g transform="translate(643.009329, 60.854649)"><g><path d="M 40 -4.203125 L 40 0 L 7.484375 0 L 7.484375 -45.96875 L 39.015625 -45.96875 L 39.015625 -41.765625 L 12.34375 -41.765625 L 12.34375 -25.421875 L 36.125 -25.421875 L 36.125 -21.28125 L 12.34375 -21.28125 L 12.34375 -4.203125 Z M 40 -4.203125 "/></g></g></g><g fill="#004aad" fill-opacity="1"><g transform="translate(694.85921, 60.854649)"><g><path d="M 38.875 0 L 28.375 -14.78125 C 27.1875 -14.644531 25.957031 -14.578125 24.6875 -14.578125 L 12.34375 -14.578125 L 12.34375 0 L 7.484375 0 L 7.484375 -45.96875 L 24.6875 -45.96875 C 30.5625 -45.96875 35.160156 -44.566406 38.484375 -41.765625 C 41.804688 -38.960938 43.46875 -35.109375 43.46875 -30.203125 C 43.46875 -26.617188 42.5625 -23.585938 40.75 -21.109375 C 38.9375 -18.640625 36.34375 -16.859375 32.96875 -15.765625 L 44.203125 0 Z M 24.5625 -18.71875 C 29.113281 -18.71875 32.59375 -19.722656 35 -21.734375 C 37.40625 -23.753906 38.609375 -26.578125 38.609375 -30.203125 C 38.609375 -33.929688 37.40625 -36.789062 35 -38.78125 C 32.59375 -40.769531 29.113281 -41.765625 24.5625 -41.765625 L 12.34375 -41.765625 L 12.34375 -18.71875 Z M 24.5625 -18.71875 "/></g></g></g><g fill="#004aad" fill-opacity="1"><g transform="translate(750.252822, 60.854649)"><g><path d="M 3.9375 -19.828125 L 21.140625 -19.828125 L 21.140625 -15.765625 L 3.9375 -15.765625 Z M 3.9375 -19.828125 "/></g></g></g></g></g></svg>